# xmcd
#
# Track frame offsets: 
#        150
#        17836
#        45038
#        61326
#        75122
#        90285
#        108881
#        123173
#        139756
#        155168
#
# Disc length: 2393 seconds
#
# Revision: 0
# Processed by: cddbd v1.5.2PL0 Copyright (c) Steve Scherf et al.
# Submitted via: ExactAudioCopy v1.2
#
DISCID=6609570a
DTITLE=JJ Appleton and Jason Ricci - Beautiful Slop
DYEAR=2018
DGENRE=Blues
TTITLE0=Don't Take Advantage of Me
TTITLE1=Hurt Myself
TTITLE2=I Got the Feeling
TTITLE3=Distraction
TTITLE4=Geaux Nuts Kidz
TTITLE5=Don't Badger the Witness
TTITLE6=Standing in the Safety Zone
TTITLE7=Brighter Days
TTITLE8=For the Very Last Time
TTITLE9=Stay
EXTD=
EXTT0=
EXTT1=
EXTT2=
EXTT3=
EXTT4=
EXTT5=
EXTT6=
EXTT7=
EXTT8=
EXTT9=
PLAYORDER=
